<?xml version="1.0" encoding="iso-8859-1"?>
<!-- Generator: Adobe Illustrator 19.0.0, SVG Export Plug-In . SVG Version: 6.00 Build 0)  -->
<svg version="1.1" id="Capa_1" xmlns="http://www.w3.org/2000/svg" xmlns:xlink="http://www.w3.org/1999/xlink" x="0px" y="0px"
	 viewBox="0 0 512 512" style="enable-background:new 0 0 512 512;" xml:space="preserve">
<g>
	<rect x="322.21" y="176.55" style="fill:#E7ECED;" width="88.28" height="61.793"/>
	<path style="fill:#E7ECED;" d="M425.807,332.879c-9.481-13.506-15.325-53.928-15.325-85.707h-88.276
		c0,31.779-5.844,72.201-15.325,85.707c-0.079,0.115-0.159,0.23-0.238,0.335c-11.335,16.322-13.674,37.049-7.821,55.923
		c3.557,11.476,9.781,26.015,17.514,36.564c3.257,4.44,8.607,6.85,14.115,6.85h71.786c5.508,0,10.858-2.41,14.115-6.85
		c7.733-10.549,13.956-25.088,17.514-36.564c5.853-18.873,3.513-39.601-7.821-55.923C425.966,333.1,425.887,332.994,425.807,332.879
		z"/>
</g>
<g>
	<path style="fill:#6B4842;" d="M203.661,262.259c-9.242-13.506-13.868-53.928-13.868-85.707h-88.276
		c0,31.779-4.626,72.201-13.868,85.707c-7.724,11.273-12.615,24.214-12.615,37.879c0,0,0,24.497,7.3,44.288
		c3.893,10.567,14.062,17.505,25.326,17.505h75.988c11.264,0,21.433-6.938,25.326-17.505c7.3-19.791,7.3-44.288,7.3-44.288
		C216.276,286.473,211.385,273.532,203.661,262.259z"/>
	<rect x="101.52" y="105.93" style="fill:#6B4842;" width="88.28" height="61.793"/>
</g>
<rect x="75.03" y="414.9" style="fill:#4C2E2B;" width="141.24" height="97.1"/>
<path style="fill:#6B4842;" d="M207.448,432.552H83.862c-9.754,0-17.655-7.901-17.655-17.655l0,0
	c0-9.754,7.901-17.655,17.655-17.655h123.586c9.754,0,17.655,7.901,17.655,17.655l0,0
	C225.103,424.651,217.203,432.552,207.448,432.552z"/>
<g>
	<path style="fill:#4C2E2B;" d="M189.793,397.241h-88.276c-9.754,0-17.655-7.901-17.655-17.655l0,0
		c0-9.754,7.901-17.655,17.655-17.655h88.276c9.754,0,17.655,7.901,17.655,17.655l0,0
		C207.448,389.341,199.548,397.241,189.793,397.241z"/>
	<path style="fill:#4C2E2B;" d="M189.793,194.207h-88.276c-9.754,0-17.655-7.901-17.655-17.655l0,0
		c0-9.754,7.901-17.655,17.655-17.655h88.276c9.754,0,17.655,7.901,17.655,17.655l0,0
		C207.448,186.306,199.548,194.207,189.793,194.207z"/>
</g>
<path style="fill:#6B4842;" d="M172.138,44.138h-52.966V26.483C119.172,11.855,131.028,0,145.655,0l0,0
	c14.627,0,26.483,11.855,26.483,26.483V44.138z"/>
<path style="fill:#4C2E2B;" d="M189.793,35.31h-88.276c-24.373,0-44.138,19.765-44.138,44.138s19.765,44.138,44.138,44.138h88.276
	c24.373,0,44.138-19.765,44.138-44.138S214.166,35.31,189.793,35.31z"/>
<g>
	<path style="fill:#AFB6BB;" d="M436.966,512H295.724v-35.354c0-24.346,19.747-44.094,44.094-44.094h53.045
		c24.355,0,44.103,19.747,44.103,44.094L436.966,512L436.966,512z"/>
	<path style="fill:#AFB6BB;" d="M410.483,264.828h-88.276c-9.754,0-17.655-7.901-17.655-17.655l0,0
		c0-9.754,7.901-17.655,17.655-17.655h88.276c9.754,0,17.655,7.901,17.655,17.655l0,0
		C428.138,256.927,420.237,264.828,410.483,264.828z"/>
</g>
<path style="fill:#E7ECED;" d="M392.828,114.759h-52.966V97.103c0-14.627,11.855-26.483,26.483-26.483l0,0
	c14.627,0,26.483,11.855,26.483,26.483V114.759z"/>
<path style="fill:#AFB6BB;" d="M410.483,105.931h-88.276c-24.373,0-44.138,19.765-44.138,44.138s19.765,44.138,44.138,44.138h88.276
	c24.373,0,44.138-19.765,44.138-44.138S434.856,105.931,410.483,105.931z"/>
<g>
</g>
<g>
</g>
<g>
</g>
<g>
</g>
<g>
</g>
<g>
</g>
<g>
</g>
<g>
</g>
<g>
</g>
<g>
</g>
<g>
</g>
<g>
</g>
<g>
</g>
<g>
</g>
<g>
</g>
</svg>
